<svg width="36" height="36" viewBox="0 0 36 36" fill="none" xmlns="http://www.w3.org/2000/svg">
                                    <path d="M33.1875 32.625H2.8125C1.88212 32.625 1.125 31.8679 1.125 30.9375V24.1875C1.125 24.0383 1.18426 23.8952 1.28975 23.7898C1.39524 23.6843 1.53832 23.625 1.6875 23.625C1.83668 23.625 1.97976 23.6843 2.08525 23.7898C2.19074 23.8952 2.25 24.0383 2.25 24.1875V30.9375C2.25 31.2469 2.50312 31.5 2.8125 31.5H33.1875C33.4969 31.5 33.75 31.2469 33.75 30.9375V24.1875C33.75 24.0383 33.8093 23.8952 33.9148 23.7898C34.0202 23.6843 34.1633 23.625 34.3125 23.625C34.4617 23.625 34.6048 23.6843 34.7102 23.7898C34.8157 23.8952 34.875 24.0383 34.875 24.1875V30.9375C34.875 31.8679 34.1179 32.625 33.1875 32.625ZM24.1875 6.75C24.0383 6.75 23.8952 6.69074 23.7898 6.58525C23.6843 6.47976 23.625 6.33668 23.625 6.1875V3.9375C23.625 3.62812 23.3719 3.375 23.0625 3.375H12.9375C12.6281 3.375 12.375 3.62812 12.375 3.9375V6.1875C12.375 6.33668 12.3157 6.47976 12.2102 6.58525C12.1048 6.69074 11.9617 6.75 11.8125 6.75C11.6633 6.75 11.5202 6.69074 11.4148 6.58525C11.3093 6.47976 11.25 6.33668 11.25 6.1875V3.9375C11.25 3.00712 12.0071 2.25 12.9375 2.25H23.0625C23.9929 2.25 24.75 3.00712 24.75 3.9375V6.1875C24.75 6.33668 24.6907 6.47976 24.5852 6.58525C24.4798 6.69074 24.3367 6.75 24.1875 6.75ZM30.9375 23.625H28.6875C28.5383 23.625 28.3952 23.5657 28.2898 23.4602C28.1843 23.3548 28.125 23.2117 28.125 23.0625C28.125 22.9133 28.1843 22.7702 28.2898 22.6648C28.3952 22.5593 28.5383 22.5 28.6875 22.5H30.9375C32.4889 22.5 33.75 21.2389 33.75 19.6875V9H3.9375C3.78832 9 3.64524 8.94074 3.53975 8.83525C3.43426 8.72976 3.375 8.58668 3.375 8.4375C3.375 8.28832 3.43426 8.14524 3.53975 8.03975C3.64524 7.93426 3.78832 7.875 3.9375 7.875H34.3125C34.4617 7.875 34.6048 7.93426 34.7102 8.03975C34.8157 8.14524 34.875 8.28832 34.875 8.4375V19.6875C34.875 21.8587 33.1087 23.625 30.9375 23.625Z" fill="white"></path>
                                    <path d="M7.3125 23.625H5.0625C2.89125 23.625 1.125 21.8587 1.125 19.6875V8.4375C1.125 8.28832 1.18426 8.14524 1.28975 8.03975C1.39524 7.93426 1.53832 7.875 1.6875 7.875C1.83668 7.875 1.97976 7.93426 2.08525 8.03975C2.19074 8.14524 2.25 8.28832 2.25 8.4375V19.6875C2.25 21.2389 3.51113 22.5 5.0625 22.5H7.3125C7.46168 22.5 7.60476 22.5593 7.71025 22.6648C7.81574 22.7702 7.875 22.9133 7.875 23.0625C7.875 23.2117 7.81574 23.3548 7.71025 23.4602C7.60476 23.5657 7.46168 23.625 7.3125 23.625ZM21.9375 23.625H14.0625C13.9133 23.625 13.7702 23.5657 13.6648 23.4602C13.5593 23.3548 13.5 23.2117 13.5 23.0625C13.5 22.9133 13.5593 22.7702 13.6648 22.6648C13.7702 22.5593 13.9133 22.5 14.0625 22.5H21.9375C22.0867 22.5 22.2298 22.5593 22.3352 22.6648C22.4407 22.7702 22.5 22.9133 22.5 23.0625C22.5 23.2117 22.4407 23.3548 22.3352 23.4602C22.2298 23.5657 22.0867 23.625 21.9375 23.625ZM10.6875 25.875C9.75712 25.875 9 25.1179 9 24.1875V20.8125C9 20.6633 9.05926 20.5202 9.16475 20.4148C9.27024 20.3093 9.41332 20.25 9.5625 20.25H11.8125C11.9617 20.25 12.1048 20.3093 12.2102 20.4148C12.3157 20.5202 12.375 20.6633 12.375 20.8125V24.1875C12.375 25.1179 11.6179 25.875 10.6875 25.875ZM10.125 21.375V24.1875C10.125 24.4969 10.3781 24.75 10.6875 24.75C10.9969 24.75 11.25 24.4969 11.25 24.1875V21.375H10.125ZM25.3125 25.875C24.3821 25.875 23.625 25.1179 23.625 24.1875V20.8125C23.625 20.6633 23.6843 20.5202 23.7898 20.4148C23.8952 20.3093 24.0383 20.25 24.1875 20.25H26.4375C26.5867 20.25 26.7298 20.3093 26.8352 20.4148C26.9407 20.5202 27 20.6633 27 20.8125V24.1875C27 25.1179 26.2429 25.875 25.3125 25.875ZM24.75 21.375V24.1875C24.75 24.4969 25.0031 24.75 25.3125 24.75C25.6219 24.75 25.875 24.4969 25.875 24.1875V21.375H24.75Z" fill="white"></path>
                                </svg>