<svg class="h-6 w-auto" viewBox="0 0 22 27" fill="none" xmlns="http://www.w3.org/2000/svg">
            <path fill-rule="evenodd" clip-rule="evenodd" d="M20.3393 5.77176C20.2981 5.34597 19.9399 5.02123 19.5125 5.02123H16.2336C15.9992 2.49306 13.891 0.5 11.3035 0.5C8.71502 0.5 6.60681 2.49285 6.37243 5.02123H4.59459C4.58518 5.02123 4.57663 5.02378 4.56808 5.02633C4.5605 5.02858 4.55292 5.03084 4.54477 5.03131C4.53662 5.03084 4.52904 5.02858 4.52146 5.02633C4.51291 5.02378 4.50435 5.02123 4.49495 5.02123H3.09348C2.66607 5.02123 2.30784 5.34598 2.26668 5.77176L0.622581 22.6331C0.526367 23.6207 0.854138 24.6088 1.52079 25.3442C2.18742 26.0786 3.13867 26.5 4.13127 26.5H18.4743C19.4667 26.5 20.4191 26.0784 21.0858 25.3426C21.7524 24.6078 22.0804 23.6197 21.9829 22.6327L20.3393 5.77176ZM11.3034 2.16248C12.9741 2.16248 14.3464 3.41043 14.5713 5.02123H8.0346C8.25931 3.41043 9.63172 2.16248 11.3034 2.16248ZM16.4225 9.16699V5.91699H14.6892V9.16699H16.4225ZM7.75648 5.91699V9.16699H6.02315V5.91699H7.75648Z" fill="#E7CD93"></path>
          </svg>