<svg width="70" height="68" viewBox="0 0 70 68" fill="none" xmlns="http://www.w3.org/2000/svg">
                                <path d="M66.5355 38.1081L67.2391 37.3976L67.7414 37.895L67.44 38.5344L66.5355 38.1081ZM63.8028 42.6877L62.9832 42.1148L62.9875 42.1087L62.9918 42.1028L63.8028 42.6877ZM60.7548 46.851L59.9702 46.231L59.9714 46.2295L60.7548 46.851ZM54.0282 54.1367L54.7172 54.8615L54.7005 54.8774L54.683 54.8925L54.0282 54.1367ZM53.1874 54.8652L52.5067 54.1327L52.5194 54.1209L52.5326 54.1095L53.1874 54.8652ZM30.5903 66.7306L30.396 65.7496L30.4085 65.7471L30.4211 65.745L30.5903 66.7306ZM25.8607 67.251L25.9265 68.2488L25.8936 68.251H25.8607V67.251ZM21.131 66.9387L21.2711 65.9485L21.3051 65.9533L21.3386 65.9605L21.131 66.9387ZM7.88796 60.3816L7.19468 61.1023L7.18641 61.0943L7.17832 61.0862L7.88796 60.3816ZM14.7197 14.7938L15.4233 15.5044L15.4188 15.5088L14.7197 14.7938ZM16.6116 12.9204L15.9079 12.2099L15.9198 12.1981L15.9321 12.1867L16.6116 12.9204ZM39.2087 0.326454L39.3593 1.31507L39.3528 1.31602L39.2087 0.326454ZM58.1272 6.05095L57.517 6.84319L57.503 6.83239L57.4894 6.82109L58.1272 6.05095ZM60.8599 8.44487L61.5206 7.69425L61.5605 7.72941L61.5965 7.7686L60.8599 8.44487ZM61.9109 9.58974L61.1783 10.2704L61.1743 10.266L61.9109 9.58974ZM69.3732 25.7224L68.3752 25.7854L68.3738 25.7633L68.3734 25.7411L69.3732 25.7224ZM69.0579 30.8224L70.0424 30.9979L70.0389 31.0174L70.0347 31.0368L69.0579 30.8224ZM66.4304 38.0041L65.7267 38.7146L65.2098 38.2027L65.5377 37.5534L66.4304 38.0041ZM67.44 38.5344C66.6742 40.1595 65.6951 41.7737 64.6138 43.2727L62.9918 42.1028C64.0126 40.6875 64.9253 39.1792 65.6309 37.6818L67.44 38.5344ZM64.6224 43.2607C63.6778 44.6119 62.7157 45.9885 61.5382 47.4726L59.9714 46.2295C61.1062 44.7993 62.036 43.4697 62.9832 42.1148L64.6224 43.2607ZM61.5394 47.471C59.6137 49.9077 57.3734 52.3363 54.7172 54.8615L53.3392 53.412C55.9381 50.9412 58.1122 48.5821 59.9702 46.231L61.5394 47.471ZM54.683 54.8925L53.8423 55.621L52.5326 54.1095L53.3733 53.381L54.683 54.8925ZM53.8682 55.5978C46.9204 62.0546 38.8662 66.3246 30.7595 67.7162L30.4211 65.745C38.0798 64.4304 45.791 60.3738 52.5067 54.1327L53.8682 55.5978ZM30.7846 67.7115C29.134 68.0384 27.493 68.1454 25.9265 68.2488L25.7948 66.2531C27.3814 66.1484 28.8935 66.0472 30.396 65.7496L30.7846 67.7115ZM25.8607 68.251C24.2024 68.251 22.5164 68.2549 20.9235 67.9169L21.3386 65.9605C22.6886 66.2469 24.1556 66.251 25.8607 66.251V68.251ZM20.991 67.9288C15.6175 67.1686 11.0133 64.7757 7.19468 61.1023L8.58124 59.6609C12.1198 63.065 16.3445 65.2516 21.2711 65.9485L20.991 67.9288ZM7.17832 61.0862C0.822841 54.6849 -1.74308 47.0366 -0.523937 38.884C0.688384 30.7769 5.62349 22.289 14.0205 14.0788L15.4188 15.5088C7.20955 23.5354 2.58029 31.6485 1.45407 39.1798C0.334672 46.6654 2.65604 53.6926 8.5976 59.6771L7.17832 61.0862ZM14.016 14.0833L15.9079 12.2099L17.3152 13.631L15.4233 15.5044L14.016 14.0833ZM15.9321 12.1867C24.1042 4.61954 31.6407 0.418022 39.0646 -0.663109L39.3528 1.31602C32.4826 2.31652 25.3048 6.23357 17.291 13.6542L15.9321 12.1867ZM39.0581 -0.66214C46.2083 -1.75147 52.795 0.336128 58.7651 5.2808L57.4894 6.82109C51.8981 2.19025 45.8725 0.322762 39.3593 1.31505L39.0581 -0.66214ZM58.7374 5.2587C59.7154 6.01193 60.6352 6.91488 61.5206 7.69425L60.1991 9.1955C59.1927 8.30956 58.4309 7.5471 57.517 6.84319L58.7374 5.2587ZM61.5965 7.7686L62.6476 8.91347L61.1743 10.266L60.1232 9.12115L61.5965 7.7686ZM62.6435 8.90911C67.5916 14.2352 70.262 19.768 70.373 25.7037L68.3734 25.7411C68.2741 20.436 65.8997 15.3524 61.1783 10.2704L62.6435 8.90911ZM70.3712 25.6594C70.4818 27.4115 70.3705 29.1571 70.0424 30.9979L68.0735 30.647C68.376 28.949 68.4748 27.3639 68.3752 25.7854L70.3712 25.6594ZM70.0347 31.0368C69.4886 33.5243 68.6163 35.8933 67.323 38.4548L65.5377 37.5534C66.7669 35.1189 67.5762 32.9083 68.0812 30.608L70.0347 31.0368ZM67.134 37.2935L67.2391 37.3976L65.8318 38.8187L65.7267 38.7146L67.134 37.2935Z" fill="currentColor"></path>
                                <path d="M41.9092 34.4594C44.2214 33.1064 46.1133 31.0248 47.4797 29.0472C50.1924 25.121 51.8939 20.068 51.8939 15.3084C51.8939 14.9961 51.6837 14.6839 51.3684 14.6839C51.0531 14.6839 50.6328 14.788 50.6328 15.2043C49.2664 19.4717 47.0592 23.4268 44.1163 26.4452C41.1734 29.8799 38.0204 31.2329 33.3958 32.4818C31.2938 33.2104 28.7713 33.8349 26.4591 35.0839C24.1468 36.3329 21.9397 38.2063 20.5733 40.288C17.5254 44.4512 15.9488 49.1349 15.4233 53.9226C15.3182 54.3389 15.5284 54.8594 15.9488 54.9634C16.4743 55.1716 17.1048 54.9635 17.315 54.339C19.2069 50.2798 21.309 46.2207 24.0417 43.0982C26.7743 39.9758 30.3479 38.6227 34.8673 37.3738C37.1796 36.6452 39.5969 35.9166 41.9092 34.4594Z" fill="currentColor"></path>
                            </svg>