<svg width="298" height="345" viewBox="0 0 298 345" fill="none" xmlns="http://www.w3.org/2000/svg">
                            <path d="M149.385 8.58301C149.385 8.58301 230.299 11.3469 271.575 41.4586C271.575 41.4586 280.881 44.5619 281.219 63.618C281.557 82.6742 280.206 108.616 280.206 108.616C280.206 108.616 281.219 118.992 271.961 123.841C271.961 123.841 272.154 159.287 272.057 163.36C271.913 167.385 267.091 174.221 262.799 177.907C262.799 177.907 266.801 197.254 273.745 209.958C280.689 222.662 281.508 243.464 281.508 263.053C281.508 270.181 284.112 285.698 276.638 298.644C263.619 321.095 228.563 340.539 147.649 344.612" stroke="currentColor" stroke-width="1.5" stroke-miterlimit="10"></path>
                            <path d="M149.386 8.58295C149.386 8.58295 100.201 4.21894 44.1213 30.7424C44.1213 30.7424 23.3384 42.4768 18.3718 49.3622C13.4051 56.2477 17.2627 101.439 21.4096 113.95C21.4096 113.95 23.1455 118.459 24.4475 119.574C24.4475 119.574 20.7828 123.744 20.7828 128.254C20.7828 129.708 21.5543 140.425 20.9274 155.408C20.397 168.742 18.4682 185.519 18.7093 200.066C19.0468 220.577 21.6025 236.918 23.9653 241.185L24.9297 244.967C24.9297 244.967 20.8792 275.903 20.8792 284.34C20.8792 292.777 21.3614 313.433 62.5413 330.017C103.721 346.6 147.698 344.515 147.698 344.515" stroke="currentColor" stroke-width="1.5" stroke-miterlimit="10"></path>
                            <path d="M272.057 55.084C272.057 55.084 254.457 81.7045 227.936 88.4929C197.991 96.1542 121.128 97.7543 70.1597 85.1957C42.0956 78.2617 31.7765 64.7333 25.749 57.1205" stroke="currentColor" stroke-width="1.5" stroke-miterlimit="10"></path>
                            <path d="M273.166 122.305C273.166 122.305 254.457 143.799 227.936 150.588C197.991 158.249 121.128 159.849 70.1597 147.29C42.0956 140.356 28.6691 124.791 22.6416 117.179" stroke="currentColor" stroke-width="1.5" stroke-miterlimit="10"></path>
                            <path d="M263.957 64.0056C263.957 64.0056 260.388 47.9558 240.618 56.1019C240.618 56.1019 235.555 45.1434 226.393 50.7681C226.393 50.7681 218.967 38.8398 208.552 45.4828C208.552 45.4828 196.738 31.8574 186.805 46.4041C186.805 46.4041 176.919 27.5419 156.619 38.5004C156.619 38.5004 148.759 34.6698 144.708 37.7246C144.708 37.7246 138.102 29.5784 128.748 39.7611C128.748 39.7611 123.685 31.615 113.028 41.3128C113.028 41.3128 100.25 29.336 88.5803 41.6037C88.5803 41.6037 87.8088 34.3304 79.1774 36.1244C70.546 37.9185 68.135 43.1554 69.1476 47.2769C69.1476 47.2769 56.4658 39.1793 51.3544 53.5805C51.3544 53.5805 34.381 48.2467 32.0664 64.7815" stroke="currentColor" stroke-width="1.5" stroke-miterlimit="10"></path>
                            <path d="M69.1953 47.2282C69.1953 47.2282 70.8348 52.4166 73.5351 52.8045C76.1872 53.1924 83.9024 51.4953 86.9403 47.8101C89.9782 44.1249 88.628 41.6035 88.628 41.6035" stroke="currentColor" stroke-width="1.5" stroke-miterlimit="10"></path>
                            <path d="M156.667 38.5004C156.667 38.5004 158.74 40.246 158.885 43.3008C159.03 46.3557 156.908 50.9621 150.688 53.2896C144.467 55.6171 139.742 53.8714 138.199 49.6529C136.656 45.4828 138.102 40.537 144.756 37.7246" stroke="currentColor" stroke-width="1.5" stroke-miterlimit="10"></path>
                            <path d="M208.552 45.4834C208.552 45.4834 206.189 49.4595 207.153 51.7385C208.118 54.0175 211.493 59.8361 220.221 59.9331C227.984 59.9816 226.441 50.7687 226.441 50.7687" stroke="currentColor" stroke-width="1.5" stroke-miterlimit="10"></path>
                            <path d="M204.26 75.0134C204.26 79.1834 201.463 82.2867 195.387 82.2867C189.312 82.2867 183.67 78.0682 183.67 73.8981C183.67 69.7281 187.094 66.6733 193.218 66.6733C199.293 66.6248 204.26 70.8433 204.26 75.0134Z" stroke="currentColor" stroke-width="1.5" stroke-miterlimit="10"></path>
                            <path d="M116.837 72.6858C116.837 76.8559 114.04 79.9592 107.965 79.9592C101.889 79.9592 96.2471 75.7406 96.2471 71.5706C96.2471 67.4005 99.6707 64.3457 105.795 64.3457C111.919 64.3457 116.837 68.5158 116.837 72.6858Z" stroke="currentColor" stroke-width="1.5" stroke-miterlimit="10"></path>
                            <path d="M262.8 177.906C262.8 177.906 235.121 202.442 224.995 221.061" stroke="currentColor" stroke-width="1.5" stroke-miterlimit="10"></path>
                            <path d="M24.9775 245.016C25.6044 246.616 45.5675 283.322 45.5675 283.322" stroke="currentColor" stroke-width="1.5" stroke-miterlimit="10"></path>
                        </svg>