<svg width="85" height="114" viewBox="0 0 85 114" fill="none" xmlns="http://www.w3.org/2000/svg" style="translate: none; rotate: none; scale: none; transform: translate(0px, 0px);">
                            <path class="logo_roots" d="M36.7003 59.6349L29.2804 52.1167C28.8369 52.7216 28.3081 53.2516 27.6997 53.6837L38.1956 64.3187C37.7521 62.7229 37.2404 61.1731 36.7003 59.6349ZM23.6117 43.3714C21.1725 43.3714 19.1882 45.3762 19.1882 47.8535C19.1882 50.325 21.1668 52.3356 23.6117 52.3356C26.0565 52.3356 28.0352 50.3308 28.0352 47.8535C28.0352 45.3762 26.0565 43.3714 23.6117 43.3714ZM34.2099 21.2718L28.7573 15.7469C28.1091 16.1099 27.4609 16.5074 26.8127 16.9452L33.5276 23.7548C33.7437 22.9079 33.9711 22.0783 34.2099 21.2718ZM31.7138 36.6654L19.4952 24.2848C19.0688 24.9013 18.6594 25.5465 18.2671 26.2091L31.7537 39.8744C31.7025 38.8431 31.6911 37.7716 31.7138 36.6654ZM66.8176 50.4402L72.3783 44.8059C72.2475 43.8726 72.0997 42.9681 71.9405 42.0809L65.2825 48.8271C65.8681 49.288 66.3855 49.8296 66.8176 50.4402ZM57.9081 23.6281L61.5128 19.9755C60.967 19.4282 60.4212 18.9501 59.864 18.4834L56.3161 22.0668C56.9188 22.5104 57.4532 23.0347 57.9081 23.6281ZM51.7959 32.8977C54.2408 32.8977 56.2194 30.8928 56.2194 28.4156C56.2194 25.944 54.2408 23.9334 51.7959 23.9334C49.3567 23.9334 47.3724 25.9383 47.3724 28.4156C47.3724 30.8928 49.3567 32.8977 51.7959 32.8977ZM39.7592 74.752H13.275C13.4513 75.5183 13.6332 76.2672 13.8322 76.9931H39.7364C39.7649 76.2269 39.7706 75.4837 39.7592 74.752ZM56.1227 55.0088C56.1227 57.4803 58.1014 59.4909 60.5463 59.4909C62.9854 59.4909 64.9698 57.486 64.9698 55.0088C64.9698 52.5373 62.9911 50.5266 60.5463 50.5266C58.1014 50.5324 56.1227 52.5373 56.1227 55.0088ZM19.3986 42.1039L13.9516 36.579C13.7185 37.3971 13.5081 38.2382 13.3034 39.0909L17.852 43.6997C18.2842 43.0948 18.8072 42.5533 19.3986 42.1039ZM47.9865 69.521L56.0318 61.369C55.4291 60.9312 54.8946 60.4069 54.4397 59.8135L47.4804 66.8651C46.673 63.1838 45.5018 59.9115 44.3362 56.6968C44.2111 56.3569 44.0917 56.0112 43.9666 55.6713L68.6143 30.6969C68.2902 29.9538 67.9661 29.2279 67.6193 28.5423L43.1479 53.3381C41.8857 49.6337 40.8281 45.8198 40.5267 41.2398L47.0653 34.6145C46.4797 34.1536 45.9623 33.6121 45.5302 33.0072L40.4528 38.1518C40.487 35.156 40.8281 31.8377 41.6298 28.018C42.7612 22.6372 45.1095 16.6975 47.3781 12.7396L46.2921 12.5783L44.9446 12.417C44.9446 12.417 36.7742 23.9392 36.0805 36.2161C35.819 40.8595 36.3307 45.4914 37.502 49.9851C38.2354 52.7908 39.2077 55.5157 40.1913 58.235C43.0342 66.0989 45.7122 73.5249 42.9034 86.9195C41.7776 92.3003 39.8274 97.3701 37.5645 101.328C38.0535 101.397 38.895 101.535 39.3839 101.576C39.9809 101.628 40.0662 101.633 40.0662 101.633C43.3185 96.8977 44.1315 96.3274 47.2132 87.9277C48.2309 88.7515 49.2771 89.4889 50.346 90.1457C50.6587 91.5975 51.7333 95.515 55.196 98.6203C55.8726 98.2688 56.5548 97.8771 57.2315 97.445C54.8832 95.6072 53.7006 93.3546 53.0695 91.6551C55.8441 93.0147 58.5449 93.8904 61.0523 94.4838C61.4446 94.1093 61.78 93.7809 62.1439 93.4007C62.4055 93.1242 62.6727 92.8304 62.9286 92.5423C58.3402 91.5975 52.535 89.5926 47.6965 85.3582C48.2196 82.3048 48.4584 79.5453 48.4925 76.9989H70.7976C70.9966 76.2672 71.1843 75.5183 71.3548 74.7578H48.4697C48.4129 72.9027 48.2423 71.1629 47.9865 69.521ZM27.1937 80.3518C23.6401 82.2876 19.626 83.192 16.1406 83.6241C16.4704 84.3673 16.8059 85.0875 17.1584 85.773C21.707 85.1336 27.0402 83.6702 31.2192 80.3576H27.1937V80.3518ZM39.3839 81.239C33.829 87.6223 25.994 90.1111 20.5016 91.0848C21.0588 91.7991 21.6217 92.4732 22.2073 93.0954C25.0388 92.5193 28.291 91.5629 31.5603 89.9613C30.8326 91.9259 29.3258 94.697 26.2044 96.6212C26.8753 97.1051 27.5348 97.5372 28.2115 97.9347C32.6122 94.743 33.9483 90.0593 34.2895 88.4577C35.8303 87.5129 37.3257 86.401 38.7471 85.1047C39.0087 83.7682 39.2304 82.4719 39.3839 81.239ZM51.0169 80.3518C55.4518 84.592 61.7232 86.2915 66.8347 86.954C67.2213 86.2627 67.5909 85.5484 67.9434 84.8052C63.7473 84.3385 58.5847 83.1863 54.5137 80.3518H51.0169Z" fill="currentColor" style="opacity: 1; visibility: inherit;"></path>
                            <path class="logo_path_half" d="M42.3177 1C48.5152 1 60.3756 2.53248 70.1835 12.8045C79.565 22.6214 84.3183 37.4965 84.3183 56.9979C84.3183 76.5049 79.5593 91.3743 70.1835 101.197C60.5493 111.287 48.9347 112.944 42.6523 113" stroke="currentColor" stroke-width="1.5" style="stroke-dashoffset: 0; stroke-dasharray: none;"></path>
                            <path class="logo_path_half" d="M43.0005 1C36.8031 1 24.9427 2.53247 15.1348 12.8045C5.75328 22.6214 1 37.4966 1 56.9979C1 76.5049 5.75897 91.3743 15.1348 101.197C24.7689 111.287 36.3836 112.944 42.666 113" stroke="currentColor" stroke-width="1.5" style="stroke-dashoffset: 0; stroke-dasharray: none;"></path>
                        </svg>