<svg width="64" height="64" viewBox="0 0 64 64" fill="currentColor" xmlns="http://www.w3.org/2000/svg">
                        <path d="M34.1292 33.2901L32.8295 31.9906L34.1157 30.7046C42.3452 30.5724 49 23.8485 49 15.5904C49 14.9912 48.7358 15 48.4122 15H48.032C39.9913 15.1887 33.4416 21.821 33.296 29.858L31.9964 31.1602L30.7075 29.8715C30.5673 21.6512 23.8478 15.0027 15.594 15.0027C14.8971 15.0027 15.0062 15.2669 15.0062 15.5931V15.9733C15.1923 24.0183 21.8362 30.5697 29.877 30.7072L31.1659 31.996L29.8824 33.282H29.7556C21.6232 33.4707 15.0062 40.2513 15.0062 48.4069C15.0062 48.9973 15.2705 48.9973 15.594 48.9973C23.8532 48.9973 30.5753 42.3461 30.7102 34.1205L31.9991 32.8317L33.2852 34.1178V34.2526C33.474 42.3839 40.2555 49 48.4122 49C48.6356 48.9973 49 48.7358 49 48.4096C49 40.1569 42.3506 33.4357 34.1292 33.2982V33.2901ZM47.8109 16.1863C47.5062 23.4036 41.69 29.219 34.4744 29.5264C34.7791 22.3576 40.6303 16.4774 47.8109 16.1863ZM16.1926 16.1917C23.4083 16.499 29.2244 22.3117 29.5345 29.5264C22.3674 29.219 16.4838 23.3713 16.1926 16.1917ZM16.198 47.803C16.5027 40.6368 22.354 34.754 29.5345 34.4629C29.2298 41.6775 23.4136 47.4929 16.198 47.803ZM34.4717 34.4683C41.6873 34.7756 47.5035 40.5883 47.8136 47.803C40.6465 47.4956 34.7629 41.6479 34.4717 34.4683Z" fill="currentColor"></path>
                    </svg>