<svg width="64" height="64" viewBox="0 0 64 64" fill="currentColor" xmlns="http://www.w3.org/2000/svg">
                        <path d="M10.3509 29.0398L10.2575 29.0352C10.1852 29.0375 10.1082 29.0655 10.0591 29.1239C10.0101 29.1822 9.98912 29.2592 10.0055 29.3339C11.9568 38.7217 20.0165 45.5397 29.605 45.9155H29.7007C29.7731 45.9178 29.8431 45.8875 29.8898 45.8315C29.9388 45.7731 29.9598 45.6961 29.9435 45.6214C28.0062 36.2336 19.9488 29.4156 10.3509 29.0398ZM29.3109 45.0845L11.0722 29.5813C19.8951 30.2442 27.2522 36.4927 29.3133 45.0845H29.3109ZM10.638 29.8661L28.8861 45.374C20.0702 44.7111 12.7107 38.4627 10.638 29.8661V29.8661Z" fill="currentColor"></path>
                        <path d="M53.7892 29.124C53.7402 29.0656 53.6655 29.0329 53.5908 29.0353L53.4975 29.0399C43.8996 29.4157 35.8422 36.2337 33.9049 45.6215C33.8885 45.6962 33.9095 45.7732 33.9586 45.8316C34.0052 45.8876 34.0753 45.9203 34.1476 45.9203H34.2433C43.8319 45.5398 51.8916 38.7219 53.8429 29.3364C53.8592 29.2617 53.8382 29.1847 53.7892 29.1263V29.124ZM52.7762 29.5815L34.5351 45.0847C36.5961 36.4928 43.9532 30.2467 52.7762 29.5815V29.5815ZM34.9622 45.3718L53.2104 29.8662C51.14 38.4604 43.7805 44.7112 34.9622 45.3741V45.3718Z" fill="currentColor"></path>
                        <path d="M34.0573 35.6544C33.6629 34.7394 32.9113 34.2539 31.8796 34.2539C30.8479 34.2539 30.157 34.7604 29.7765 35.6777C28.99 37.5707 29.8722 40.7241 31.7045 42.561C31.7512 42.6077 31.8142 42.6334 31.8796 42.6334C31.9449 42.6334 32.008 42.6077 32.0546 42.561C32.092 42.5237 32.1247 42.491 32.19 42.435C33.9733 40.5537 34.8276 37.4493 34.0573 35.652V35.6544ZM31.8889 42.0359C30.1687 40.1709 29.6295 37.3303 30.2364 35.8691C30.5445 35.1269 31.0977 34.7511 31.8819 34.7511C32.6662 34.7511 33.2894 35.1199 33.6022 35.8504C34.3001 37.4727 33.5041 40.3039 31.8889 42.0359Z" fill="currentColor"></path>
                        <path d="M31.915 20.6539C32.6479 20.6539 33.2431 20.0587 33.2431 19.3258C33.2431 18.5929 32.6479 18 31.915 18C31.1821 18 30.5869 18.5952 30.5869 19.3281C30.5869 20.061 31.1821 20.6562 31.915 20.6562V20.6539ZM31.915 18.4948C32.3725 18.4948 32.746 18.8683 32.746 19.3258C32.746 19.7833 32.3725 20.1567 31.915 20.1567C31.4575 20.1567 31.0841 19.7833 31.0841 19.3258C31.0841 18.8683 31.4575 18.4948 31.915 18.4948Z" fill="currentColor"></path>
                        <path d="M31.915 26.3545C32.6479 26.3545 33.2431 25.7593 33.2431 25.0264C33.2431 24.2934 32.6479 23.6982 31.915 23.6982C31.1821 23.6982 30.5869 24.2934 30.5869 25.0264C30.5869 25.7593 31.1821 26.3545 31.915 26.3545ZM31.915 24.1954C32.3725 24.1954 32.746 24.5689 32.746 25.0264C32.746 25.4838 32.3725 25.8573 31.915 25.8573C31.4575 25.8573 31.0841 25.4838 31.0841 25.0264C31.0841 24.5689 31.4575 24.1954 31.915 24.1954V24.1954Z" fill="currentColor"></path>
                        <path d="M31.915 32.0537C32.6479 32.0537 33.2431 31.4585 33.2431 30.7256C33.2431 29.9927 32.6479 29.3975 31.915 29.3975C31.1821 29.3975 30.5869 29.9927 30.5869 30.7256C30.5869 31.4585 31.1821 32.0537 31.915 32.0537ZM31.915 29.8946C32.3725 29.8946 32.746 30.2681 32.746 30.7256C32.746 31.1831 32.3725 31.5565 31.915 31.5565C31.4575 31.5565 31.0841 31.1831 31.0841 30.7256C31.0841 30.2681 31.4575 29.8946 31.915 29.8946Z" fill="currentColor"></path>
                        <path d="M11.3291 40.3936C10.5962 40.3936 10.001 40.9888 10.001 41.7217C10.001 42.4546 10.5962 43.0498 11.3291 43.0498C12.062 43.0498 12.6572 42.4546 12.6572 41.7217C12.6572 40.9888 12.062 40.3936 11.3291 40.3936ZM11.3291 42.5526C10.8716 42.5526 10.4981 42.1792 10.4981 41.7217C10.4981 41.2642 10.8716 40.8907 11.3291 40.8907C11.7866 40.8907 12.16 41.2642 12.16 41.7217C12.16 42.1792 11.7866 42.5526 11.3291 42.5526Z" fill="currentColor"></path>
                        <path d="M52.5195 40.3936C51.7866 40.3936 51.1914 40.9888 51.1914 41.7217C51.1914 42.4546 51.7866 43.0498 52.5195 43.0498C53.2524 43.0498 53.8476 42.4546 53.8476 41.7217C53.8476 40.9888 53.2524 40.3936 52.5195 40.3936ZM52.5195 42.5526C52.062 42.5526 51.6886 42.1792 51.6886 41.7217C51.6886 41.2642 52.062 40.8907 52.5195 40.8907C52.977 40.8907 53.3505 41.2642 53.3505 41.7217C53.3505 42.1792 52.977 42.5526 52.5195 42.5526Z" fill="currentColor"></path>
                    </svg>