<svg width="64" height="64" viewBox="0 0 64 64" fill="none" xmlns="http://www.w3.org/2000/svg">
                        <circle cx="21.5945" cy="23.9626" r="2.31128" stroke="currentColor" stroke-width="0.5" stroke-linecap="round" stroke-linejoin="round"></circle>
                        <circle cx="42.0652" cy="23.9626" r="2.31128" stroke="currentColor" stroke-width="0.5" stroke-linecap="round" stroke-linejoin="round"></circle>
                        <path d="M35.5223 35.7175C41.3335 29.6421 47.6788 28.1445 49.99 28.2546C47.8769 39.6129 37.223 43.1128 32.1602 43.443C27.0973 43.1128 16.1132 39.6128 14 28.2545C16.3113 28.1445 22.6566 29.6421 28.4678 35.7175M35.5223 35.7175C35.2563 37.1674 34.8598 38.3439 34.4714 39.1506M35.5223 35.7175C36.2359 31.8262 36.009 25.9657 32.1602 20C28.5281 25.6131 26.547 29.5753 29.5187 39.1506" stroke="currentColor" stroke-width="0.5" stroke-linecap="round" stroke-linejoin="round"></path>
                        <path d="M32.1597 31.5567C33.0715 31.5567 33.8106 30.8176 33.8106 29.9058C33.8106 28.994 33.0715 28.2549 32.1597 28.2549C31.248 28.2549 30.5088 28.994 30.5088 29.9058C30.5088 30.8176 31.248 31.5567 32.1597 31.5567ZM32.1597 31.5567L32.1602 43.4432M41.4056 35.5188L32.1604 43.113M22.5848 35.5186L31.8299 43.1128M23.2452 34.528C23.2452 35.4398 22.5061 36.1789 21.5943 36.1789C20.6825 36.1789 19.9434 35.4398 19.9434 34.528C19.9434 33.6163 20.6825 32.8771 21.5943 32.8771C22.5061 32.8771 23.2452 33.6163 23.2452 34.528ZM44.3769 34.528C44.3769 35.4398 43.6378 36.1789 42.726 36.1789C41.8142 36.1789 41.0751 35.4398 41.0751 34.528C41.0751 33.6163 41.8142 32.8771 42.726 32.8771C43.6378 32.8771 44.3769 33.6163 44.3769 34.528Z" stroke="currentColor" stroke-width="0.5" stroke-linecap="round" stroke-linejoin="round"></path>
                    </svg>