<svg width="64" height="64" viewBox="0 0 64 64" fill="none" xmlns="http://www.w3.org/2000/svg">
                        <path d="M18.0738 31.8209C17.9754 31.9193 17.9754 32.08 18.0738 32.1805L31.8171 45.9225C31.8673 45.9727 31.9316 45.9968 31.9959 45.9968C32.0602 45.9968 32.1265 45.9727 32.1747 45.9225L45.924 32.1745C46.0224 32.076 46.0224 31.9153 45.924 31.8149L32.1807 18.0729C32.0823 17.9744 31.9216 17.9744 31.8211 18.0729L18.0718 31.8209H18.0738ZM30.9712 31.0032C28.102 30.8726 25.7492 28.532 25.6246 25.6591C28.5119 25.7897 30.8386 28.1162 30.9712 31.0032ZM26.9828 29.7857L25.1303 31.638L22.0542 28.5622L25.1142 25.5024V25.5526C25.1524 27.2061 25.8657 28.7028 26.9848 29.7857H26.9828ZM27.3626 30.1232C28.3953 30.969 29.7033 31.4854 31.1199 31.5115L31.6242 32.0158L31.1219 32.518H31.0777C29.6833 32.5502 28.4014 33.0645 27.3847 33.8962L25.488 31.9997L27.3626 30.1252V30.1232ZM25.6266 38.3765C25.7572 35.5075 28.098 33.1549 30.9712 33.0303C30.8406 35.9174 28.5139 38.2439 25.6266 38.3765ZM27.0049 34.2338C25.8737 35.3227 25.1544 36.8375 25.1183 38.505L22.0481 35.4352L25.1263 32.3573L27.0029 34.2338H27.0049ZM29.7737 37.0043L31.6403 38.8707L28.5621 41.9486L25.498 38.8847C27.1777 38.8486 28.6907 38.1354 29.7757 37.0043H29.7737ZM30.1132 36.6245C30.9471 35.5979 31.4534 34.2981 31.4795 32.8797L31.9838 32.3754L32.4862 32.8776V32.9259C32.5183 34.3282 33.0387 35.616 33.8765 36.6346L31.9999 38.5111L30.1132 36.6245ZM38.3431 38.3765C35.4739 38.2459 33.1211 35.9053 32.9965 33.0323C35.8838 33.1629 38.2105 35.4894 38.3431 38.3765ZM34.2161 37.0123C35.3091 38.1414 36.8281 38.8546 38.4978 38.8847L35.4357 41.9445L32.3596 38.8687L34.2161 37.0123ZM36.9869 34.2418L38.8715 32.3573L41.9477 35.4332L38.8514 38.5291C38.8213 36.8476 38.112 35.3327 36.9869 34.2418ZM36.6091 33.9023C35.5804 33.0605 34.2744 32.5502 32.8498 32.5241L32.3415 32.0158L32.8438 31.5115C34.2804 31.4874 35.5965 30.969 36.6312 30.1152L38.5119 31.9957L36.6091 33.8982V33.9023ZM38.3451 25.6591C38.2145 28.5461 35.8878 30.8726 33.0005 31.0052C33.1311 28.1362 35.4719 25.7836 38.3451 25.6591ZM37.009 29.7757C38.1341 28.6787 38.8374 27.1538 38.8555 25.4642L41.9517 28.5602L38.8715 31.638L37.007 29.7736L37.009 29.7757ZM38.4516 25.1468C36.806 25.1849 35.3132 25.8901 34.2322 26.9991L32.3596 25.1267L35.4377 22.0468L38.536 25.1448H38.4496L38.4516 25.1468ZM33.8946 27.3808C33.0407 28.4135 32.5203 29.7254 32.4922 31.1478L31.9838 31.6561L31.4815 31.1539C31.4554 29.7274 30.943 28.4195 30.0992 27.3909L32.0019 25.4883L33.8946 27.3808ZM29.7576 27.0132C28.6666 25.8861 27.1476 25.1789 25.4658 25.1528L28.5661 22.0528L31.6423 25.1287L29.7576 27.0132ZM21.6945 28.9238L24.7707 31.9997L21.6925 35.0776L18.6163 32.0017L21.6945 28.9238ZM31.9999 45.3861L28.9238 42.3102L32.0019 39.2323L35.0781 42.3082L31.9999 45.3861ZM42.3093 35.0776L39.2332 32.0017L42.3114 28.9238L45.3875 31.9997L42.3093 35.0776ZM35.0801 21.6912L32.0019 24.7711L28.9258 21.6952L32.0039 18.6173L35.0801 21.6932V21.6912Z" fill="currentColor"></path>
                        <path d="M49.9168 31.7984L32.201 14.0827C32.0908 13.9724 31.9109 13.9724 31.7984 14.0827L14.0827 31.7984C13.9724 31.9086 13.9724 32.0885 14.0827 32.201L31.7984 49.9168C31.8547 49.973 31.9266 50 31.9986 50C32.0706 50 32.1448 49.973 32.1988 49.9168L49.9145 32.201C50.0247 32.0908 49.9972 31.9981 49.9145 31.7984H49.9168Z" stroke="currentColor" stroke-width="0.5" stroke-linejoin="round"></path>
                    </svg>