<svg width="64" height="64" viewBox="0 0 64 64" fill="currentColor" xmlns="http://www.w3.org/2000/svg">
                        <path d="M31.71 50C31.584 50 31.4721 49.9164 31.4371 49.7962L27.4463 36.2844L20.1487 32.3355C20.0577 32.285 20 32.191 20 32.0864C20 31.9819 20.0577 31.8861 20.1487 31.8374L27.4463 27.8885L31.4371 14.1816C31.5071 13.9395 31.9147 13.9395 31.9847 14.1816L35.9755 27.8902L43.0788 31.8391C43.1681 31.8896 43.2258 31.9837 43.2258 32.0864C43.2258 32.1892 43.1698 32.285 43.0788 32.3338L35.9755 36.2826L31.9847 49.7962C31.9497 49.9164 31.8377 50 31.7118 50H31.71ZM20.8818 32.0847L27.8224 35.8402C27.8889 35.8768 27.9379 35.9377 27.9589 36.0092L31.7083 48.7093L35.4576 36.0092C35.4786 35.9377 35.5276 35.8768 35.5923 35.8419L42.3528 32.0847L35.5923 28.3274C35.5276 28.2909 35.4786 28.2299 35.4576 28.1585L31.7083 15.2772L27.9589 28.1585C27.9379 28.2316 27.8889 28.2926 27.8224 28.3292L20.8818 32.0847Z" fill="currentColor"></path>
                        <path d="M31.6676 42.9683C31.5527 42.9683 31.4519 42.8911 31.4204 42.7809L29.1451 34.5975L24.9991 32.3442C24.9172 32.2986 24.8652 32.2135 24.8652 32.1191C24.8652 32.0246 24.9172 31.938 24.9991 31.8939L29.1435 29.6406L31.4204 21.3454C31.4818 21.1218 31.8534 21.1218 31.9149 21.3454L34.1918 29.6437L38.226 31.897C38.3063 31.9427 38.3582 32.0277 38.3582 32.1206C38.3582 32.2135 38.3079 32.3001 38.226 32.3442L34.1918 34.5975L31.9149 42.7825C31.8834 42.8927 31.7826 42.9698 31.6676 42.9698V42.9683ZM25.6588 32.1191L29.4852 34.1991C29.5466 34.2322 29.5907 34.2889 29.6096 34.355L31.6676 41.7558L33.7257 34.355C33.7446 34.2889 33.7887 34.2338 33.8485 34.2007L37.5757 32.1191L33.8485 30.0374C33.7887 30.0043 33.7446 29.9476 33.7257 29.8815L31.6676 22.3815L29.6096 29.8815C29.5907 29.9492 29.5466 30.0059 29.4852 30.039L25.6588 32.1191Z" fill="currentColor"></path>
                        <path d="M33.1364 32.0623C33.1364 32.9052 32.4531 33.5885 31.6102 33.5885C30.7672 33.5885 30.084 32.9052 30.084 32.0623C30.084 31.2194 30.7672 30.5361 31.6102 30.5361C32.4531 30.5361 33.1364 31.2194 33.1364 32.0623Z" stroke="currentColor" stroke-width="0.5"></path>
                    </svg>