<svg width="64" height="64" viewBox="0 0 64 64" fill="currentColor" xmlns="http://www.w3.org/2000/svg">
                        <path d="M40.6867 26.0121C40.6263 26.0121 40.5693 25.9827 40.533 25.9326C39.8437 24.9721 39.0128 24.1481 38.0592 23.483C38.0074 23.4468 37.9763 23.3863 37.9798 23.3224C37.9815 23.2585 38.016 23.1997 38.0713 23.1669L44.5494 19.2887C44.6237 19.2438 44.7204 19.2559 44.7809 19.3181C44.8431 19.3803 44.8534 19.477 44.8068 19.5495L40.8474 25.924C40.8146 25.9775 40.7558 26.0104 40.6936 26.0138H40.6867V26.0121ZM38.5118 23.3431C39.3272 23.9477 40.0527 24.6664 40.6729 25.4869L44.0743 20.0125L38.5118 23.3431Z" fill="currentColor"></path>
                        <path d="M42.5193 33.9616C42.4709 33.9616 42.426 33.9443 42.3897 33.9097C42.3431 33.8666 42.3223 33.8026 42.3327 33.7404C42.4312 33.1686 42.4813 32.583 42.4813 31.9957C42.4813 31.4083 42.4312 30.8314 42.3327 30.2665C42.3223 30.2043 42.3431 30.1386 42.3897 30.0954C42.4363 30.0523 42.502 30.035 42.5642 30.0505L49.8594 31.8834C49.944 31.9041 50.0027 31.9819 50.0027 32.0682C50.0027 32.1546 49.9405 32.2306 49.8559 32.2514L42.5607 33.9564C42.5469 33.9598 42.5314 33.9616 42.5175 33.9616H42.5193ZM42.7507 30.4876C42.8233 30.9851 42.8596 31.4913 42.8596 31.9974C42.8596 32.5036 42.8233 33.0218 42.7507 33.5262L49.0129 32.0613L42.7507 30.4876Z" fill="currentColor"></path>
                        <path d="M44.552 44.8277C44.5174 44.8277 44.4829 44.8191 44.4518 44.8001L38.0635 40.832C38.01 40.7992 37.9754 40.7405 37.9737 40.6766C37.972 40.6126 38.0031 40.5522 38.0532 40.5159C39.0067 39.8491 39.8377 39.0251 40.5269 38.0663C40.5649 38.0145 40.6306 37.9817 40.6876 37.9869C40.7515 37.9886 40.8102 38.0231 40.8413 38.0784L44.7109 44.5427C44.7558 44.617 44.7437 44.7137 44.6815 44.7742C44.6453 44.8104 44.5969 44.8277 44.5485 44.8277H44.552ZM38.504 40.6576L43.9905 44.0659L40.6669 38.5155C40.045 39.3343 39.3211 40.0547 38.504 40.6576Z" fill="currentColor"></path>
                        <path d="M31.9343 49.9973C31.8479 49.9973 31.7719 49.9368 31.7512 49.8521L30.0271 42.4775C30.0133 42.4153 30.0306 42.3497 30.0738 42.3048C30.117 42.2581 30.1826 42.2374 30.2448 42.2495C31.3901 42.4568 32.6132 42.4654 33.7481 42.2719C33.8086 42.2616 33.8742 42.2823 33.9192 42.3307C33.9623 42.3773 33.9796 42.443 33.9641 42.5052L32.1208 49.8573C32.1001 49.942 32.0241 50.0007 31.9377 50.0007L31.9343 49.9973ZM30.459 42.6658L31.9412 49.0057L33.5253 42.6865C32.5251 42.8265 31.4678 42.8196 30.459 42.6658Z" fill="currentColor"></path>
                        <path d="M19.3586 44.7321C19.3085 44.7321 19.2601 44.7131 19.2238 44.6751C19.1617 44.6129 19.1513 44.5161 19.1979 44.4436L23.2178 37.9707C23.2523 37.9171 23.3093 37.8826 23.3733 37.8809C23.432 37.8809 23.4976 37.9102 23.5339 37.962C24.2111 38.9312 25.0455 39.7742 26.0163 40.4686C26.0681 40.5049 26.0975 40.5654 26.0958 40.6293C26.0941 40.6932 26.0595 40.7519 26.0042 40.783L19.4553 44.7044C19.426 44.7217 19.3914 44.7321 19.3586 44.7321ZM23.3905 38.4095L19.9304 43.9806L25.5654 40.6051C24.7345 39.978 24.0038 39.2404 23.3905 38.4095Z" fill="currentColor"></path>
                        <path d="M21.6217 33.9843C21.6061 33.9843 21.5906 33.9825 21.575 33.9791L14.1434 32.1134C14.0587 32.0927 14 32.0149 14 31.9286C14 31.8422 14.0622 31.7662 14.1468 31.7454L21.5785 30.0076C21.6407 29.9938 21.7046 30.0111 21.7512 30.0542C21.7979 30.0974 21.8186 30.1613 21.8065 30.2253C21.7046 30.7988 21.6545 31.3948 21.6545 31.9977C21.6545 32.6006 21.7063 33.1914 21.8065 33.7649C21.8186 33.8288 21.7961 33.8927 21.7495 33.9359C21.715 33.9687 21.6683 33.986 21.6199 33.986L21.6217 33.9843ZM14.9916 31.9355L21.3885 33.542C21.3142 33.0359 21.2762 32.5176 21.2762 31.9959C21.2762 31.4742 21.3142 30.9473 21.3902 30.4395L14.9916 31.9355Z" fill="currentColor"></path>
                        <path d="M23.3838 26.1086H23.3769C23.313 26.1069 23.2543 26.0724 23.2214 26.0171L19.2897 19.4543C19.2448 19.3801 19.2569 19.2833 19.319 19.2229C19.3812 19.1607 19.4762 19.1503 19.5505 19.197L26.0096 23.2082C26.0631 23.241 26.096 23.2997 26.0994 23.3619C26.1012 23.4258 26.0718 23.4846 26.02 23.5226C25.0543 24.2101 24.2199 25.0531 23.5376 26.0292C23.5013 26.0793 23.4443 26.1104 23.3821 26.1104L23.3838 26.1086ZM20.0152 19.9294L23.3976 25.5766C24.0161 24.7405 24.7451 24.0046 25.5725 23.3809L20.0152 19.9294Z" fill="currentColor"></path>
                        <path d="M30.2219 21.753C30.1701 21.753 30.12 21.7322 30.0837 21.6925C30.0405 21.6459 30.0233 21.5802 30.0388 21.518L31.8855 14.1434C31.9062 14.0587 31.9822 14 32.0686 14C32.155 14 32.231 14.0605 32.2517 14.1451L33.9706 21.4973C33.9844 21.5595 33.9671 21.6234 33.9239 21.67C33.8808 21.7167 33.8134 21.7357 33.7546 21.727C32.6335 21.537 31.4104 21.5405 30.253 21.7495C30.2427 21.7512 30.2306 21.753 30.2185 21.753H30.2219ZM32.0634 14.9916L30.4759 21.3297C31.4916 21.1742 32.5489 21.1708 33.5422 21.3107L32.0634 14.9916Z" fill="currentColor"></path>
                        <path d="M37.5474 23.1084C37.5129 23.1084 37.4801 23.0997 37.449 23.0807C36.4988 22.5037 35.4675 22.0891 34.3879 21.8473C34.3188 21.8318 34.2652 21.7799 34.2462 21.7126C34.2272 21.6452 34.2479 21.5726 34.2997 21.5243L37.3609 18.6618C37.4161 18.61 37.4956 18.5962 37.563 18.6255C37.6321 18.6549 37.677 18.7223 37.6787 18.7966L37.7357 22.9166C37.7357 22.9857 37.6994 23.0496 37.6407 23.0825C37.6113 23.0997 37.5785 23.1066 37.5474 23.1066V23.1084ZM34.8145 21.5605C35.7007 21.7903 36.5524 22.1341 37.3539 22.5867L37.3073 19.2284L34.8145 21.5605Z" fill="currentColor"></path>
                        <path d="M42.3619 29.6653C42.3447 29.6653 42.3291 29.6636 42.3118 29.6584C42.2462 29.6394 42.1944 29.5876 42.1788 29.5202C41.9231 28.4595 41.4982 27.4455 40.916 26.5092C40.8797 26.4505 40.878 26.3762 40.9126 26.3157C40.9471 26.2553 41.0024 26.2224 41.0836 26.2207L45.2175 26.3572C45.2917 26.3589 45.3574 26.4055 45.3868 26.4764C45.4144 26.5455 45.3988 26.6249 45.347 26.6785L42.4984 29.6083C42.4621 29.6463 42.4138 29.6653 42.3619 29.6653ZM41.417 26.6111C41.8713 27.3989 42.222 28.235 42.4604 29.1039L44.777 26.7217L41.417 26.6111Z" fill="currentColor"></path>
                        <path d="M41.105 37.7236C41.0376 37.7236 40.9737 37.6874 40.9409 37.6286C40.9063 37.5682 40.9081 37.4956 40.9443 37.4369C41.523 36.4971 41.9428 35.4848 42.1881 34.431C42.2037 34.3637 42.2555 34.3101 42.3229 34.2911C42.3902 34.2721 42.4611 34.2928 42.5094 34.3447L45.3356 37.354C45.3874 37.4092 45.4013 37.4887 45.3719 37.5578C45.3425 37.6269 45.2751 37.6718 45.2009 37.6718L41.1085 37.7236H41.1067H41.105ZM42.4697 34.8543C42.2365 35.718 41.891 36.5524 41.4401 37.3419L44.7655 37.3004L42.4697 34.856V34.8543Z" fill="currentColor"></path>
                        <path d="M37.4475 45.3985C37.3991 45.3985 37.3507 45.3795 37.3162 45.3449L34.3484 42.4479C34.2983 42.3995 34.2793 42.3287 34.2983 42.2613C34.3173 42.194 34.3708 42.1439 34.4382 42.1283C35.5109 41.8882 36.5353 41.4702 37.4855 40.8845C37.5442 40.8483 37.6185 40.8465 37.6789 40.8828C37.7394 40.9174 37.7757 40.983 37.7722 41.0521L37.6358 45.2153C37.634 45.2896 37.5874 45.357 37.5183 45.3846C37.4958 45.3933 37.4716 45.3985 37.4475 45.3985ZM34.8562 42.4168L37.273 44.7748L37.3853 41.3855C36.5854 41.8416 35.739 42.1871 34.858 42.4168H34.8562Z" fill="currentColor"></path>
                        <path d="M26.5107 45.3768C26.4865 45.3768 26.4606 45.3716 26.4364 45.3612C26.3673 45.3319 26.3224 45.2645 26.3207 45.1902L26.2637 40.9855C26.2637 40.9164 26.2999 40.8525 26.3604 40.8179C26.4209 40.7851 26.4952 40.7851 26.5539 40.8231C27.5144 41.4278 28.5526 41.8631 29.6375 42.117C29.7066 42.1326 29.7601 42.1844 29.7774 42.2518C29.7947 42.3191 29.7739 42.3917 29.7238 42.4383L26.6385 45.325C26.6023 45.3578 26.5556 45.3768 26.509 45.3768H26.5107ZM26.6472 41.3206L26.6938 44.7566L29.2142 42.3986C28.3194 42.1567 27.4591 41.7957 26.6489 41.3206H26.6472Z" fill="currentColor"></path>
                        <path d="M23.0555 37.7735H23.0503L18.7834 37.637C18.7091 37.6353 18.6417 37.5887 18.6141 37.5178C18.5864 37.4487 18.602 37.3693 18.6538 37.3157L21.6113 34.2771C21.6596 34.227 21.7305 34.208 21.7978 34.227C21.8635 34.246 21.9153 34.2995 21.9309 34.3669C22.1813 35.4673 22.6132 36.5159 23.2161 37.4833C23.2524 37.542 23.2541 37.6163 23.2196 37.6768C23.185 37.7355 23.1228 37.7718 23.0555 37.7718V37.7735ZM19.2222 37.2725L22.7134 37.3848C22.2401 36.566 21.8808 35.6936 21.6424 34.7867L19.2204 37.2742L19.2222 37.2725Z" fill="currentColor"></path>
                        <path d="M21.7325 29.8201C21.6806 29.8201 21.6305 29.7994 21.5943 29.7597L18.6696 26.6364C18.6178 26.5811 18.604 26.5016 18.6334 26.4325C18.6627 26.3634 18.7301 26.3185 18.8044 26.3168L23.0246 26.2598C23.1024 26.2649 23.1576 26.296 23.1922 26.3548C23.2267 26.4152 23.225 26.4878 23.1887 26.5465C22.591 27.5191 22.1626 28.5694 21.9173 29.6681C21.9018 29.7372 21.8499 29.7907 21.7826 29.8098C21.7653 29.8149 21.7497 29.8167 21.7325 29.8167V29.8201ZM19.238 26.6916L21.6305 29.2466C21.8655 28.3397 22.2213 27.4673 22.6929 26.645L19.238 26.6916Z" fill="currentColor"></path>
                        <path d="M26.41 23.2196C26.3772 23.2196 26.3461 23.211 26.3168 23.1955C26.2563 23.1609 26.22 23.0953 26.2217 23.0244L26.3634 18.7766C26.3651 18.7023 26.4118 18.6349 26.4809 18.6073C26.5517 18.5796 26.6294 18.5952 26.683 18.647L29.6784 21.5664C29.7285 21.6148 29.7475 21.6856 29.7285 21.753C29.7095 21.8187 29.6577 21.8705 29.5903 21.886C28.502 22.1451 27.4655 22.5839 26.5102 23.1903C26.4791 23.2093 26.4446 23.2196 26.4083 23.2196H26.41ZM26.7262 19.2171L26.6104 22.6858C27.4189 22.2108 28.2774 21.848 29.174 21.6027L26.7262 19.2171Z" fill="currentColor"></path>
                        <path d="M29.6681 37.264C29.6249 37.264 29.5783 37.2606 29.5316 37.2554C28.9754 37.188 28.0788 36.6732 27.3861 35.4381C26.3738 33.638 26.4533 31.5512 26.4602 31.4078C26.4619 28.7717 27.8283 26.8594 29.7096 26.8594C31.5908 26.8594 32.071 28.3934 32.071 29.4299C32.071 30.4664 31.5874 31.3716 30.594 32.1109C29.713 32.7674 29.618 33.8902 29.618 34.3429C29.618 35.0684 29.8633 35.8492 30.1 36.1843C30.423 36.6421 30.3263 36.9168 30.1864 37.0671C30.0672 37.1949 29.8858 37.2623 29.6698 37.2623L29.6681 37.264ZM29.7096 27.2377C28.046 27.2377 26.8385 28.9928 26.8385 31.413V31.4217C26.8385 31.4424 26.7452 33.5257 27.7161 35.2532C28.3397 36.364 29.1084 36.8235 29.5766 36.8805C29.7286 36.8995 29.8495 36.8736 29.9082 36.8114C29.9946 36.7181 29.853 36.4953 29.789 36.4037C29.4746 35.9598 29.238 35.0736 29.238 34.3446C29.238 33.6156 29.3485 32.5687 30.3677 31.8104C31.2712 31.1384 31.6927 30.3817 31.6927 29.4333C31.6927 28.4849 31.1935 27.2412 29.7096 27.2412V27.2377Z" fill="currentColor"></path>
                        <path d="M33.6662 37.8407C32.0561 37.8407 31.3047 36.3067 31.3047 35.2702C31.3047 34.2337 31.7711 33.4166 32.7748 32.5943C33.6834 31.8515 33.7577 31.0499 33.7577 30.3572C33.7577 29.6645 33.5124 28.8508 33.2757 28.5157C32.9527 28.0579 33.0494 27.7832 33.1894 27.6329C33.3345 27.4792 33.5642 27.4118 33.8424 27.4446C34.3986 27.512 35.2952 28.0268 35.9879 29.262C37.0002 31.062 36.9207 33.1488 36.9156 33.2922C36.9138 35.9283 35.5474 37.8407 33.6644 37.8407H33.6662ZM33.7059 27.8143C33.5971 27.8143 33.5124 27.8402 33.4658 27.8903C33.3794 27.9836 33.5211 28.2065 33.585 28.298C33.8994 28.742 34.136 29.6282 34.136 30.3572C34.136 31.0862 33.9996 32.0795 33.0132 32.8862C32.0924 33.6411 31.6813 34.3753 31.6813 35.2702C31.6813 36.165 32.1805 37.4623 33.6644 37.4623C35.1483 37.4623 36.5372 35.7072 36.5372 33.287V33.2784C36.5372 33.2576 36.6305 31.1743 35.6597 29.4468C35.0361 28.336 34.2673 27.8765 33.7992 27.8195C33.7664 27.8161 33.7353 27.8143 33.7059 27.8143Z" fill="currentColor"></path>
                    </svg>