<svg width="30" height="48" viewBox="0 0 30 48" fill="none" xmlns="http://www.w3.org/2000/svg">
                                    <path d="M15.0992 47.9778C14.6584 47.9778 14.3057 47.6676 14.2396 47.2244C13.6665 43.3019 11.6605 32.5319 9.4122 29.6953C8.19985 28.144 2.60103 25.7285 0.551066 24.9307C0.220426 24.7978 0 24.4654 0 24.1108C0 23.7562 0.220426 23.4238 0.551066 23.2909C2.60103 22.4931 8.19985 20.0554 9.4122 18.5263C11.6826 15.6454 13.6664 4.72022 14.2616 0.753463C14.3277 0.33241 14.6804 0 15.1213 0C15.5621 0 15.9148 0.310249 15.981 0.753463C16.5541 4.72022 18.56 15.6233 20.8303 18.5263C22.0207 20.0332 27.4651 22.4931 29.4489 23.2909C29.7796 23.4238 30 23.7562 30 24.1108C30 24.4654 29.7796 24.7978 29.4489 24.9307C27.4431 25.7507 22.0206 28.1884 20.8083 29.7175C18.582 32.5762 16.5541 43.3241 15.981 47.2465C15.9148 47.6676 15.5401 48 15.1213 48L15.0992 47.9778ZM3.13004 24.1108C5.57678 25.1745 9.52243 27.0582 10.7568 28.6094C12.6525 31.0028 14.1955 37.4737 15.0992 42.0609C16.003 37.4737 17.5459 31.0249 19.4195 28.6094C20.6319 27.0803 24.4894 25.1745 26.87 24.1108C24.4894 23.0471 20.6319 21.1413 19.4195 19.6122C17.5239 17.1967 15.9809 10.6814 15.0992 6.0277C14.1955 10.6593 12.6745 17.1967 10.7568 19.6122C9.52243 21.1634 5.57678 23.0471 3.13004 24.1108Z" fill="#E0C179"></path>
                                </svg>